<svg xmlns="http://www.w3.org/2000/svg" version="1.1" xmlns:xlink="http://www.w3.org/1999/xlink" xmlns:svgjs="http://svgjs.dev/svgjs" width="100%" height="100%" viewBox="0 0 1000 600"><rect width="1000" height="600" x="0" y="0" fill="#353b57"/><g><circle r="166.66666666666666" cx="277.7037913004557" cy="299.926014290519" fill="#ffffff" transform="matrix(1.1257495606663397,0,0,1.12574956066634,0,-37.64159219046091)"/><path d="M212.85865504401448 241.14224790324457L216.70556775427156 241.97081371776147L164.9202043469649 370.6648396939767Q164.06204689621524 372.79543750273444 162.5824650845779 373.86073640711334Q161.07329163670784 374.92603531149217 159.17942691781207 374.92603531149217L159.17942691781207 374.92603531149217Q156.19067165830464 374.92603531149217 154.68149821043457 373.3280869549239Q153.20191639879724 371.7301385983556 152.994774945168 369.3923993359686L152.994774945168 369.3923993359686Q152.78763349153877 368.3271004315897 153.20191639879724 366.8475186199524L153.20191639879724 366.8475186199524L209.45561687724864 229.1872268652149Q210.5209157816275 226.84948760282794 212.11886413819582 225.90255524338005Q213.71681249476416 224.9260312476994 215.84741030352188 224.9260312476994L215.84741030352188 224.9260312476994Q217.97800811227967 224.9260312476994 219.575956468848 226.10969669700927Q221.1739048254163 227.2933621463191 222.03206227616596 229.1872268652149L222.03206227616596 229.1872268652149L278.0490296647554 366.19650262283193Q278.4929042082466 367.46894298084004 278.4929042082466 368.74138333884815L278.4929042082466 368.74138333884815Q278.4929042082466 371.7301385983556 276.56944785311805 373.3280869549239Q274.6459914979895 374.92603531149217 272.10111078197326 374.92603531149217L272.10111078197326 374.92603531149217Q269.9705129732156 374.92603531149217 268.3725646166472 373.7719614984151Q266.7746162600789 372.5882960491052 265.91645880932924 370.6648396939767L265.91645880932924 370.6648396939767L212.85865504401448 241.14224790324457ZM251.20941560165417 331.69265477544934L177.289508292253 331.69265477544934L182.6160028141474 319.116209376532L248.66453488563795 319.116209376532L251.20941560165417 331.69265477544934ZM311.0732957005007 225.57704724481982L361.58621874979923 225.57704724481982Q373.5116481515961 225.57704724481982 382.6554637475149 231.0219083116452Q391.82887097966625 236.43717774223785 397.1553655015607 246.02486788164776Q402.48186002345517 255.61255802105768 402.48186002345517 267.9818619663458L402.48186002345517 267.9818619663458Q402.48186002345517 280.32157427540113 397.1553655015607 290.2347724133713Q391.82887097966625 300.1479705513414 382.6554637475149 305.88874798049426Q373.5116481515961 311.65911704587984 361.58621874979923 311.65911704587984L361.58621874979923 311.65911704587984L316.39979022239504 311.65911704587984L317.46508912677393 309.5285192371221L317.46508912677393 368.3271004315897Q317.46508912677393 370.87198114760594 315.5416327716454 372.79543750273444Q313.6477680527496 374.71889385786295 311.0732957005007 374.71889385786295L311.0732957005007 374.71889385786295Q308.08454044099324 374.71889385786295 306.3978171757267 372.79543750273444Q304.6815022742274 370.87198114760594 304.6815022742274 368.3271004315897L304.6815022742274 368.3271004315897L304.6815022742274 231.9688406710931Q304.6815022742274 229.4239599550769 306.6049586293559 227.50050359994836Q308.52841498448447 225.57704724481982 311.0732957005007 225.57704724481982L311.0732957005007 225.57704724481982ZM316.1926487687658 299.28981310059174L361.58621874979923 299.28981310059174Q369.8718768949683 299.28981310059174 376.0565288676123 295.14698402800724Q382.24118084025645 290.97456331918994 385.7625855519533 283.842978987098Q389.28399026365 276.7113946550061 389.28399026365 267.9818619663458L389.28399026365 267.9818619663458Q389.28399026365 259.25232927768553 385.7625855519533 252.53502785285204Q382.24118084025645 245.81772642801852 376.0565288676123 241.97081371776147Q369.8718768949683 238.15349264373714 361.58621874979923 238.15349264373714L361.58621874979923 238.15349264373714L316.39979022239504 238.15349264373714L317.46508912677393 236.23003628860863L317.46508912677393 300.56225345859986L316.1926487687658 299.28981310059174Z " fill="#353b57" transform="matrix(1.1257495606663397,0,0,1.12574956066634,0,-37.64159219046091)"/><path d="M587.636723586495 241.14224790324457L591.483636296752 241.97081371776147L539.6982728894454 370.6648396939767Q538.8401154386956 372.79543750273444 537.3605336270584 373.86073640711334Q535.8513601791883 374.92603531149217 533.9574954602925 374.92603531149217L533.9574954602925 374.92603531149217Q530.9687402007851 374.92603531149217 529.459566752915 373.3280869549239Q527.9799849412777 371.7301385983556 527.7728434876485 369.3923993359686L527.7728434876485 369.3923993359686Q527.5657020340193 368.3271004315897 527.9799849412777 366.8475186199524L527.9799849412777 366.8475186199524L584.2336854197291 229.1872268652149Q585.298984324108 226.84948760282794 586.8969326806763 225.90255524338005Q588.4948810372446 224.9260312476994 590.6254788460024 224.9260312476994L590.6254788460024 224.9260312476994Q592.7560766547601 224.9260312476994 594.3540250113285 226.10969669700927Q595.9519733678967 227.2933621463191 596.8101308186465 229.1872268652149L596.8101308186465 229.1872268652149L652.8270982072358 366.19650262283193Q653.2709727507271 367.46894298084004 653.2709727507271 368.74138333884815L653.2709727507271 368.74138333884815Q653.2709727507271 371.7301385983556 651.3475163955985 373.3280869549239Q649.42406004047 374.92603531149217 646.8791793244537 374.92603531149217L646.8791793244537 374.92603531149217Q644.7485815156961 374.92603531149217 643.1506331591277 373.7719614984151Q641.5526848025594 372.5882960491052 640.6945273518097 370.6648396939767L640.6945273518097 370.6648396939767L587.636723586495 241.14224790324457ZM625.9874841441347 331.69265477544934L552.0675768347335 331.69265477544934L557.3940713566278 319.116209376532L623.4426034281184 319.116209376532L625.9874841441347 331.69265477544934ZM685.8513642429812 225.57704724481982L736.3642872922798 225.57704724481982Q748.2897166940766 225.57704724481982 757.4335322899952 231.0219083116452Q766.6069395221467 236.43717774223785 771.9334340440412 246.02486788164776Q777.2599285659356 255.61255802105768 777.2599285659356 267.9818619663458L777.2599285659356 267.9818619663458Q777.2599285659356 280.32157427540113 771.9334340440412 290.2347724133713Q766.6069395221467 300.1479705513414 757.4335322899952 305.88874798049426Q748.2897166940766 311.65911704587984 736.3642872922798 311.65911704587984L736.3642872922798 311.65911704587984L691.1778587648755 311.65911704587984L692.2431576692544 309.5285192371221L692.2431576692544 368.3271004315897Q692.2431576692544 370.87198114760594 690.3197013141258 372.79543750273444Q688.4258365952301 374.71889385786295 685.8513642429812 374.71889385786295L685.8513642429812 374.71889385786295Q682.8626089834737 374.71889385786295 681.1758857182072 372.79543750273444Q679.4595708167079 370.87198114760594 679.4595708167079 368.3271004315897L679.4595708167079 368.3271004315897L679.4595708167079 231.9688406710931Q679.4595708167079 229.4239599550769 681.3830271718364 227.50050359994836Q683.3064835269649 225.57704724481982 685.8513642429812 225.57704724481982L685.8513642429812 225.57704724481982ZM690.9707173112463 299.28981310059174L736.3642872922798 299.28981310059174Q744.6499454374488 299.28981310059174 750.8345974100928 295.14698402800724Q757.0192493827368 290.97456331918994 760.5406540944338 283.842978987098Q764.0620588061305 276.7113946550061 764.0620588061305 267.9818619663458L764.0620588061305 267.9818619663458Q764.0620588061305 259.25232927768553 760.5406540944338 252.53502785285204Q757.0192493827368 245.81772642801852 750.8345974100928 241.97081371776147Q744.6499454374488 238.15349264373714 736.3642872922798 238.15349264373714L736.3642872922798 238.15349264373714L691.1778587648755 238.15349264373714L692.2431576692544 236.23003628860863L692.2431576692544 300.56225345859986L690.9707173112463 299.28981310059174Z " fill="#ffffff" transform="matrix(1.1257495606663397,0,0,1.12574956066634,0,-37.64159219046091)"/></g></svg>